<svg width="18" height="54" viewBox="0 0 18 54" fill="none" xmlns="http://www.w3.org/2000/svg">
<g filter="url(#filter0_dddd_326_117)">
<path d="M9.24331 0.160631L9.16565 9.05973L9.12392 13.8413L9.08914 17.826L4.94311 13.8049L4.98484 9.02325L9.24331 0.160631Z" fill="#FDBF74"/>
<path d="M9.24302 0.278334L9.17211 8.40441L9.11747 14.6657L9.08269 18.6503L13.2983 14.7021L13.3478 9.02974L9.24302 0.278334Z" fill="#F2996D"/>
<path d="M7.42348 10.6037C7.43376 9.42577 8.33551 8.36929 9.27862 8.37752C10.2217 8.38575 11.144 9.05474 11.1338 10.2327L11.1338 30.6847C11.1267 31.4971 9.85245 32.0348 9.20203 32.0291L8.5543 32.0235C7.90387 32.0178 7.04549 31.4971 7.05258 30.6847L7.42348 10.6037Z" fill="#8A70B7"/>
<path d="M10.7637 9.86152C10.7739 8.6836 11.205 8.49354 11.9857 8.50035C12.7664 8.50716 13.3711 8.31257 13.3609 9.4905L13.7317 31.3812C13.7247 32.1936 12.5099 32.4825 11.9715 32.4778L11.4353 32.4732C10.8968 32.4685 10.7564 31.2074 10.7635 30.395L10.7637 9.86152Z" fill="#7256A3"/>
<path d="M4.82603 9.86149C4.83631 8.68357 5.36135 8.49433 6.34288 8.50289C7.32441 8.51146 7.80442 9.05459 7.79414 10.2325L7.05209 31.1704C7.045 31.9827 7.0557 32.4867 6.37878 32.4808L5.70467 32.4749C5.02775 32.469 4.07644 31.9827 4.08353 31.1704L4.82603 9.86149Z" fill="#997CCC"/>
<path d="M9.29815 0.0432431L10.4567 2.8372L9.27143 3.10524L7.98352 2.81562L9.29815 0.0432431Z" fill="url(#paint0_linear_326_117)"/>
<path d="M4.08398 36.9466C4.08398 38.5859 5.4129 39.9148 7.05221 39.9148H10.7625C12.4018 39.9148 13.7307 38.5859 13.7307 36.9466V34.7204H4.08398V36.9466Z" fill="#DDA9E9"/>
<path d="M10.7617 34.7205H13.7299V30.2681H10.7617V34.7205Z" fill="#C5C0C0"/>
<path d="M7.05078 34.7205H9.27695V30.2681H7.05078V34.7205Z" fill="#D9D9D9"/>
<path d="M8.53711 34.7205H10.7633V30.2681H8.53711V34.7205Z" fill="#D9D9D9"/>
<path d="M4.08398 34.7205H7.05221V30.2681H4.08398V34.7205Z" fill="#C5C0C0"/>
</g>
<defs>
<filter id="filter0_dddd_326_117" x="0.0839844" y="0.0432129" width="17.6484" height="53.8716" filterUnits="userSpaceOnUse" color-interpolation-filters="sRGB">
<feFlood flood-opacity="0" result="BackgroundImageFix"/>
<feColorMatrix in="SourceAlpha" type="matrix" values="0 0 0 0 0 0 0 0 0 0 0 0 0 0 0 0 0 0 127 0" result="hardAlpha"/>
<feOffset dy="1"/>
<feGaussianBlur stdDeviation="0.5"/>
<feColorMatrix type="matrix" values="0 0 0 0 0 0 0 0 0 0 0 0 0 0 0 0 0 0 0.13 0"/>
<feBlend mode="normal" in2="BackgroundImageFix" result="effect1_dropShadow_326_117"/>
<feColorMatrix in="SourceAlpha" type="matrix" values="0 0 0 0 0 0 0 0 0 0 0 0 0 0 0 0 0 0 127 0" result="hardAlpha"/>
<feOffset dy="2"/>
<feGaussianBlur stdDeviation="1"/>
<feColorMatrix type="matrix" values="0 0 0 0 0 0 0 0 0 0 0 0 0 0 0 0 0 0 0.11 0"/>
<feBlend mode="normal" in2="effect1_dropShadow_326_117" result="effect2_dropShadow_326_117"/>
<feColorMatrix in="SourceAlpha" type="matrix" values="0 0 0 0 0 0 0 0 0 0 0 0 0 0 0 0 0 0 127 0" result="hardAlpha"/>
<feOffset dy="5"/>
<feGaussianBlur stdDeviation="1.5"/>
<feColorMatrix type="matrix" values="0 0 0 0 0 0 0 0 0 0 0 0 0 0 0 0 0 0 0.07 0"/>
<feBlend mode="normal" in2="effect2_dropShadow_326_117" result="effect3_dropShadow_326_117"/>
<feColorMatrix in="SourceAlpha" type="matrix" values="0 0 0 0 0 0 0 0 0 0 0 0 0 0 0 0 0 0 127 0" result="hardAlpha"/>
<feOffset dy="10"/>
<feGaussianBlur stdDeviation="2"/>
<feColorMatrix type="matrix" values="0 0 0 0 0 0 0 0 0 0 0 0 0 0 0 0 0 0 0.02 0"/>
<feBlend mode="normal" in2="effect3_dropShadow_326_117" result="effect4_dropShadow_326_117"/>
<feBlend mode="normal" in="SourceGraphic" in2="effect4_dropShadow_326_117" result="shape"/>
</filter>
<linearGradient id="paint0_linear_326_117" x1="9.2614" y1="0.147317" x2="9.245" y2="2.02627" gradientUnits="userSpaceOnUse">
<stop stop-color="#4B1E13"/>
<stop offset="1" stop-color="#250800"/>
</linearGradient>
</defs>
</svg>
